<svg xmlns="http://www.w3.org/2000/svg" xmlns:xlink="http://www.w3.org/1999/xlink" viewBox="0 0 640 600"><defs id="defs_block"><filter id="filter_blur" width="1.157" height="1.504" x="-.079" y="-.252"><feGaussianBlur id="feGaussianBlur3780" stdDeviation="4.2"/></filter></defs><title>blockdiag</title><desc/><rect width="128" height="40" x="67" y="46" fill="#000" stroke="#000" style="filter:url(#filter_blur);opacity:.7;fill-opacity:1"/><rect width="128" height="40" x="67" y="126" fill="#000" stroke="#000" style="filter:url(#filter_blur);opacity:.7;fill-opacity:1"/><rect width="128" height="40" x="67" y="206" fill="#000" stroke="#000" style="filter:url(#filter_blur);opacity:.7;fill-opacity:1"/><rect width="128" height="40" x="67" y="286" fill="#000" stroke="#000" style="filter:url(#filter_blur);opacity:.7;fill-opacity:1"/><rect width="128" height="40" x="67" y="366" fill="#000" stroke="#000" style="filter:url(#filter_blur);opacity:.7;fill-opacity:1"/><rect width="128" height="40" x="259" y="366" fill="#000" stroke="#000" style="filter:url(#filter_blur);opacity:.7;fill-opacity:1"/><rect width="128" height="40" x="451" y="366" fill="#000" stroke="#000" style="filter:url(#filter_blur);opacity:.7;fill-opacity:1"/><rect width="128" height="40" x="67" y="446" fill="#000" stroke="#000" style="filter:url(#filter_blur);opacity:.7;fill-opacity:1"/><rect width="128" height="40" x="259" y="446" fill="#000" stroke="#000" style="filter:url(#filter_blur);opacity:.7;fill-opacity:1"/><rect width="128" height="40" x="451" y="446" fill="#000" stroke="#000" style="filter:url(#filter_blur);opacity:.7;fill-opacity:1"/><rect width="128" height="40" x="451" y="526" fill="#000" stroke="#000" style="filter:url(#filter_blur);opacity:.7;fill-opacity:1"/><rect width="128" height="40" x="64" y="40" fill="#FFF" stroke="#000"/><text x="128" y="59" fill="#000" font-family="sans-serif" font-size="9" font-style="normal" font-weight="normal" text-anchor="middle" textLength="30">ubuntu</text><text x="128" y="70" fill="#000" font-family="sans-serif" font-size="9" font-style="normal" font-weight="normal" text-anchor="middle" textLength="119">(LTS with point release)</text><rect width="128" height="40" x="64" y="120" fill="#FFF" stroke="#000"/><text x="128" y="145" fill="#000" font-family="sans-serif" font-size="9" font-style="normal" font-weight="normal" text-anchor="middle" textLength="119">docker-stacks-foundation</text><rect width="128" height="40" x="64" y="200" fill="#FFF" stroke="#000"/><text x="128" y="225" fill="#000" font-family="sans-serif" font-size="9" font-style="normal" font-weight="normal" text-anchor="middle" textLength="65">base-notebook</text><rect width="128" height="40" x="64" y="280" fill="#FFF" stroke="#000"/><text x="128" y="305" fill="#000" font-family="sans-serif" font-size="9" font-style="normal" font-weight="normal" text-anchor="middle" textLength="80">minimal-notebook</text><rect width="128" height="40" x="64" y="360" fill="#FFF" stroke="#000"/><text x="128" y="385" fill="#000" font-family="sans-serif" font-size="9" font-style="normal" font-weight="normal" text-anchor="middle" textLength="70">scipy-notebook</text><rect width="128" height="40" x="256" y="360" fill="#FFF" stroke="#000"/><text x="320" y="385" fill="#000" font-family="sans-serif" font-size="9" font-style="normal" font-weight="normal" text-anchor="middle" textLength="50">r-notebook</text><rect width="128" height="40" x="448" y="360" fill="#FFF" stroke="#000"/><text x="512" y="385" fill="#000" font-family="sans-serif" font-size="9" font-style="normal" font-weight="normal" text-anchor="middle" textLength="70">julia-notebook</text><rect width="128" height="40" x="64" y="440" fill="#FFF" stroke="#000"/><text x="128" y="465" fill="#000" font-family="sans-serif" font-size="9" font-style="normal" font-weight="normal" text-anchor="middle" textLength="95">tensorflow-notebook</text><rect width="128" height="40" x="256" y="440" fill="#FFF" stroke="#000"/><text x="320" y="465" fill="#000" font-family="sans-serif" font-size="9" font-style="normal" font-weight="normal" text-anchor="middle" textLength="100">datascience-notebook</text><rect width="128" height="40" x="448" y="440" fill="#FFF" stroke="#000"/><text x="512" y="465" fill="#000" font-family="sans-serif" font-size="9" font-style="normal" font-weight="normal" text-anchor="middle" textLength="80">pyspark-notebook</text><rect width="128" height="40" x="448" y="520" fill="#FFF" stroke="#000"/><text x="512" y="545" fill="#000" font-family="sans-serif" font-size="9" font-style="normal" font-weight="normal" text-anchor="middle" textLength="90">all-spark-notebook</text><path fill="none" stroke="#000" d="M 128 80 L 128 112"/><polygon fill="#000" stroke="#000" points="128 119 124 112 132 112 128 119"/><path fill="none" stroke="#000" d="M 128 160 L 128 192"/><polygon fill="#000" stroke="#000" points="128 199 124 192 132 192 128 199"/><path fill="none" stroke="#000" d="M 128 240 L 128 272"/><polygon fill="#000" stroke="#000" points="128 279 124 272 132 272 128 279"/><path fill="none" stroke="#000" d="M 128 320 L 128 352"/><polygon fill="#000" stroke="#000" points="128 359 124 352 132 352 128 359"/><path fill="none" stroke="#000" d="M 128 320 L 128 340"/><path fill="none" stroke="#000" d="M 128 340 L 320 340"/><path fill="none" stroke="#000" d="M 320 340 L 320 352"/><polygon fill="#000" stroke="#000" points="320 359 316 352 324 352 320 359"/><path fill="none" stroke="#000" d="M 128 320 L 128 340"/><path fill="none" stroke="#000" d="M 128 340 L 512 340"/><path fill="none" stroke="#000" d="M 512 340 L 512 352"/><polygon fill="#000" stroke="#000" points="512 359 508 352 516 352 512 359"/><path fill="none" stroke="#000" d="M 128 400 L 128 420"/><path fill="none" stroke="#000" d="M 128 420 L 512 420"/><path fill="none" stroke="#000" d="M 512 420 L 512 432"/><polygon fill="#000" stroke="#000" points="512 439 508 432 516 432 512 439"/><path fill="none" stroke="#000" d="M 128 400 L 128 432"/><polygon fill="#000" stroke="#000" points="128 439 124 432 132 432 128 439"/><path fill="none" stroke="#000" d="M 128 400 L 128 420"/><path fill="none" stroke="#000" d="M 128 420 L 320 420"/><path fill="none" stroke="#000" d="M 320 420 L 320 432"/><polygon fill="#000" stroke="#000" points="320 439 316 432 324 432 320 439"/><path fill="none" stroke="#000" d="M 512 480 L 512 512"/><polygon fill="#000" stroke="#000" points="512 519 508 512 516 512 512 519"/></svg>